<?xml version="1.0" encoding="UTF-8"?>
<svg version="1.1" xmlns="http://www.w3.org/2000/svg" width="125" height="104">
<path d="M0 0 C41.25 0 82.5 0 125 0 C125 34.32 125 68.64 125 104 C83.75 104 42.5 104 0 104 C0 69.68 0 35.36 0 0 Z " fill="#FCFCFC" transform="translate(0,0)"/>
<path d="M0 0 C41.25 0 82.5 0 125 0 C125 34.32 125 68.64 125 104 C120.05 104 115.1 104 110 104 C110 103.67 110 103.34 110 103 C113.63 102.67 117.26 102.34 121 102 C121.495 100.02 121.495 100.02 122 98 C121.40832031 97.96261719 120.81664063 97.92523438 120.20703125 97.88671875 C115.46033751 97.49180622 111.80972926 97.11705121 108 94 C105.56991769 90.40822013 105.69759181 86.74377836 105.69360352 82.55688477 C105.68528 81.81330719 105.67695648 81.06972961 105.66838074 80.30361938 C105.64431651 77.84949486 105.63551385 75.39563619 105.62890625 72.94140625 C105.61993838 71.23274151 105.6108165 69.52407756 105.60154724 67.81541443 C105.58506528 64.2352406 105.57735837 60.65516022 105.57446289 57.07495117 C105.56907466 52.49028095 105.53137377 47.90648996 105.48571873 43.32206821 C105.45596104 39.79356179 105.44873965 36.26526765 105.44773674 32.73664665 C105.44353315 31.04654849 105.43109316 29.35644977 105.41021919 27.6664753 C105.38332501 25.30116343 105.38812211 22.93789706 105.40063477 20.57250977 C105.38580048 19.87676346 105.37096619 19.18101715 105.35568237 18.46418762 C105.41326026 14.63702472 105.92345108 13.09415663 108.370224 10.08457947 C111.16154683 7.87194453 112.82746003 7.1986392 116.3125 6.6875 C117.19550781 6.54699219 118.07851562 6.40648437 118.98828125 6.26171875 C119.65214844 6.17535156 120.31601563 6.08898437 121 6 C121.33 4.68 121.66 3.36 122 2 C106.82 2 91.64 2 76 2 C76.495 3.98 76.495 3.98 77 6 C77.60328125 6.10957031 78.2065625 6.21914062 78.828125 6.33203125 C79.62734375 6.49058594 80.4265625 6.64914063 81.25 6.8125 C82.43335937 7.03873047 82.43335937 7.03873047 83.640625 7.26953125 C86.59403008 8.18391329 87.88213681 8.68677607 90 11 C90.66817129 14.26616022 90.65316545 17.52234266 90.6796875 20.84765625 C90.7009671 21.81529404 90.7222467 22.78293182 90.74417114 23.77989197 C90.78505787 25.82485726 90.81637955 27.87003283 90.83886719 29.9152832 C90.87490702 33.05440123 90.94281493 36.19161962 91.015625 39.33007812 C91.05136178 41.31507117 91.085278 43.300098 91.1171875 45.28515625 C91.13683563 46.2278688 91.15648376 47.17058136 91.17672729 48.14186096 C91.18398834 49.01293991 91.19124939 49.88401886 91.19873047 50.78149414 C91.20887177 51.54965958 91.21901306 52.31782501 91.22946167 53.10926819 C91 55 91 55 89 57 C88.3291288 55.3767313 87.66342971 53.75132422 87 52.125 C86.62875 51.22007813 86.2575 50.31515625 85.875 49.3828125 C85 47 85 47 85 45 C84.01 45 83.02 45 82 45 C81.87753906 45.71542969 81.75507812 46.43085937 81.62890625 47.16796875 C80.98864625 50.05112713 80.06448444 52.58592473 78.9375 55.3125 C78.39416016 56.63701172 78.39416016 56.63701172 77.83984375 57.98828125 C77.42412109 58.98408203 77.42412109 58.98408203 77 60 C77.66 60.33 78.32 60.66 79 61 C77.35 61 75.7 61 74 61 C74.66 60.67 75.32 60.34 76 60 C76 55.05 76 50.1 76 45 C75.01 45 74.02 45 73 45 C72.896875 45.680625 72.79375 46.36125 72.6875 47.0625 C71.85274981 50.62915989 70.50527246 53.66222194 69 57 C66.65085508 54.65085508 66.26859643 53.04320554 65.375 49.875 C65.11460938 48.96492188 64.85421875 48.05484375 64.5859375 47.1171875 C64.39257812 46.41851562 64.19921875 45.71984375 64 45 C63.01 45 62.02 45 61 45 C61 49.95 61 54.9 61 60 C58.03 59.67 55.06 59.34 52 59 C52 54.38 52 49.76 52 45 C47.05 45 42.1 45 37 45 C36.93113015 40.2122702 36.87139974 35.42625823 36.83520508 30.63842773 C36.82011757 29.00978777 36.79964494 27.38118844 36.77368164 25.75268555 C36.73729551 23.41184465 36.7202738 21.07154081 36.70703125 18.73046875 C36.69154739 18.00224411 36.67606354 17.27401947 36.66011047 16.52372742 C36.65843277 11.48543652 36.65843277 11.48543652 38.36328125 9.0625 C40.58109309 7.62277489 42.58891616 7.25122195 45.1875 6.8125 C46.08855469 6.65394531 46.98960938 6.49539062 47.91796875 6.33203125 C48.94857422 6.16767578 48.94857422 6.16767578 50 6 C50.33 4.68 50.66 3.36 51 2 C35.82 2 20.64 2 5 2 C5.33 3.32 5.66 4.64 6 6 C7.24716797 6.25523437 7.24716797 6.25523437 8.51953125 6.515625 C9.60621094 6.75796875 10.69289063 7.0003125 11.8125 7.25 C12.89144531 7.48203125 13.97039063 7.7140625 15.08203125 7.953125 C18.50573078 9.18144023 19.24539828 9.86215952 21 13 C21.28972366 15.56342658 21.41047457 17.88181554 21.38818359 20.44311523 C21.39344055 21.18669281 21.39869751 21.93027039 21.40411377 22.69638062 C21.41730095 25.15066633 21.40857965 27.6043016 21.3984375 30.05859375 C21.40045883 31.76725895 21.40337076 33.47592332 21.40713501 35.18458557 C21.41155679 38.76482358 21.40513286 42.34483695 21.39111328 45.92504883 C21.37403434 50.50952542 21.38385515 55.09347461 21.40183067 59.67793179 C21.41268354 63.20644588 21.40921506 66.73483545 21.4014473 70.26335335 C21.39944877 71.9534111 21.40189236 73.64348024 21.40888596 75.3335247 C21.41652385 77.69848334 21.40486367 80.06259454 21.38818359 82.42749023 C21.39729263 83.4711097 21.39729263 83.4711097 21.40658569 84.53581238 C21.35041854 88.84476925 20.64890424 91.57791595 18 95 C15.625 96.14453125 15.625 96.14453125 13 96.8125 C12.13375 97.04582031 11.2675 97.27914062 10.375 97.51953125 C8 98 8 98 5 98 C5 99.65 5 101.3 5 103 C8.96 103 12.92 103 17 103 C17 103.33 17 103.66 17 104 C11.39 104 5.78 104 0 104 C0 69.68 0 35.36 0 0 Z " fill="#FEFEFE" transform="translate(0,0)"/>
<path d="M0 0 C15.18 0 30.36 0 46 0 C45.67 1.65 45.34 3.3 45 5 C44.15695313 5.18175781 43.31390625 5.36351562 42.4453125 5.55078125 C40.80175781 5.92783203 40.80175781 5.92783203 39.125 6.3125 C38.03445312 6.55613281 36.94390625 6.79976562 35.8203125 7.05078125 C32.70557647 7.77902058 32.70557647 7.77902058 31 11 C30.80105415 13.48043614 30.71657898 15.84880415 30.7253418 18.32958984 C30.72023087 19.07302139 30.71511993 19.81645294 30.70985413 20.58241272 C30.69594516 23.04200271 30.69691606 25.50131284 30.69921875 27.9609375 C30.69533208 29.67103174 30.69099748 31.38112502 30.68623352 33.09121704 C30.67876819 36.67737963 30.67906452 40.26344378 30.68432617 43.84960938 C30.69011648 48.44193634 30.67320208 53.03385942 30.6499815 57.62611961 C30.63523714 61.1589086 30.63437349 64.69160052 30.63749123 68.22441483 C30.63697821 69.91727116 30.63174412 71.61013295 30.62167931 73.30295944 C30.60932057 75.67277867 30.61610307 78.04181409 30.62768555 80.41162109 C30.62004181 81.10893845 30.61239807 81.8062558 30.60452271 82.52470398 C30.6510074 86.83516628 31.30962263 89.59911518 34 93 C36.92391316 94.24305309 36.92391316 94.24305309 40.1875 94.8125 C41.27417969 95.04582031 42.36085937 95.27914062 43.48046875 95.51953125 C44.72763672 95.75736328 44.72763672 95.75736328 46 96 C46 97.32 46 98.64 46 100 C30.82 100 15.64 100 0 100 C0 98.68 0 97.36 0 96 C0.77085938 95.80664062 1.54171875 95.61328125 2.3359375 95.4140625 C3.33882813 95.15367188 4.34171875 94.89328125 5.375 94.625 C6.37273437 94.36976562 7.37046875 94.11453125 8.3984375 93.8515625 C11.12541015 93.17595681 11.12541015 93.17595681 13 91 C13.31269102 87.7609133 13.31269102 87.7609133 13.265625 83.9453125 C13.26849518 82.89837723 13.26849518 82.89837723 13.27142334 81.83029175 C13.2727851 80.35251506 13.26908926 78.8747264 13.26074219 77.39697266 C13.25007411 75.14067473 13.26062057 72.88517882 13.2734375 70.62890625 C13.27211527 69.19270658 13.26955157 67.75650741 13.265625 66.3203125 C13.26336914 65.01336426 13.26111328 63.70641602 13.25878906 62.35986328 C13.0196305 59.25486309 12.87567803 57.46381436 11 55 C7.43793339 54.18129815 7.43793339 54.18129815 4 54 C3.67 55.32 3.34 56.64 3 58 C2.34 58 1.68 58 1 58 C4.07517084 47.44191344 4.07517084 47.44191344 6 43 C6.99 43 7.98 43 9 43 C10.32 46.3 11.64 49.6 13 53 C13.33 53 13.66 53 14 53 C13.98062197 46.78801213 13.92903411 40.57744927 13.84741211 34.3659668 C13.82419723 32.25243899 13.80982824 30.13879493 13.80444336 28.02514648 C13.79517932 24.98868059 13.75424478 21.95405208 13.70703125 18.91796875 C13.7109639 17.97100632 13.71489655 17.02404388 13.71894836 16.04838562 C13.66429747 13.59814545 13.56876001 11.38382288 13 9 C9.4131919 5.76940428 5.72588217 5.46332178 1 5 C0.67 3.35 0.34 1.7 0 0 Z " fill="#848484" transform="translate(76,2)"/>
<path d="M0 0 C15.18 0 30.36 0 46 0 C45.67 1.65 45.34 3.3 45 5 C43.96939453 5.16435547 43.96939453 5.16435547 42.91796875 5.33203125 C42.01691406 5.49058594 41.11585937 5.64914063 40.1875 5.8125 C39.29417969 5.96332031 38.40085938 6.11414063 37.48046875 6.26953125 C34.60201766 7.1172011 33.73161127 7.56211226 32 10 C31.71434697 12.59074396 31.6104844 14.9392157 31.64355469 17.52905273 C31.64151031 18.29359772 31.63946594 19.0581427 31.63735962 19.84585571 C31.63434947 22.37534436 31.65283747 24.90418246 31.671875 27.43359375 C31.67493276 29.19092141 31.67680875 30.9482515 31.67755127 32.70558167 C31.68215604 36.39015975 31.696587 40.0745195 31.71875 43.7590332 C31.74701164 48.48137006 31.75795941 53.20353475 31.7624321 57.92594814 C31.76659049 61.55562563 31.77641184 65.18526834 31.78830719 68.81492805 C31.79400383 70.55604843 31.79876453 72.29717213 31.80257416 74.03829765 C31.80945336 76.47277554 31.82309428 78.90711822 31.83886719 81.34155273 C31.83998505 82.06116684 31.84110291 82.78078094 31.84225464 83.52220154 C31.87143628 86.92518206 32.16625926 89.66503703 33 93 C37.29 93.99 41.58 94.98 46 96 C46 97.32 46 98.64 46 100 C30.82 100 15.64 100 0 100 C0 98.68 0 97.36 0 96 C0.91523437 95.75765625 1.83046875 95.5153125 2.7734375 95.265625 C4.55621094 94.76289063 4.55621094 94.76289063 6.375 94.25 C8.15003906 93.76273438 8.15003906 93.76273438 9.9609375 93.265625 C12.98424351 92.31615765 12.98424351 92.31615765 14.17178345 90.38708496 C15.30856573 87.11065215 15.29496858 83.96779629 15.29052734 80.54101562 C15.29724457 79.79583176 15.30396179 79.05064789 15.31088257 78.28288269 C15.3298536 75.82393701 15.3337859 73.36526426 15.3359375 70.90625 C15.34236472 69.19518929 15.34909303 67.48412968 15.35610962 65.77307129 C15.36807917 62.18869477 15.37179064 58.60441462 15.37060547 55.02001953 C15.37040199 50.4264043 15.39773497 45.83340575 15.43214989 41.23993683 C15.45437956 37.70718544 15.45844427 34.17458358 15.45738602 30.64176941 C15.45974673 28.94807301 15.46859668 27.25437278 15.48405075 25.56074524 C15.50363736 23.19305054 15.49790329 20.8267005 15.48583984 18.45898438 C15.49707886 17.75964279 15.50831787 17.06030121 15.51989746 16.33976746 C15.47641006 12.98264951 15.21182164 11.27360338 13.13076782 8.58557129 C10.63591987 6.72907653 8.80743975 6.23275364 5.75 5.75 C4.85796875 5.60046875 3.9659375 5.4509375 3.046875 5.296875 C2.37140625 5.19890625 1.6959375 5.1009375 1 5 C0.67 3.35 0.34 1.7 0 0 Z " fill="#818181" transform="translate(5,2)"/>
<path d="M0 0 C4.62 0 9.24 0 14 0 C14 4.62 14 9.24 14 14 C16.64 14 19.28 14 22 14 C22 14.33 22 14.66 22 15 C14.74 15 7.48 15 0 15 C0 10.05 0 5.1 0 0 Z " fill="#505050" transform="translate(38,45)"/>
<path d="M0 0 C0.99 0 1.98 0 3 0 C4.32 3.3 5.64 6.6 7 10 C9.09782787 7.90217213 9.6509396 6.6200793 10.625 3.875 C10.88539062 3.15054688 11.14578125 2.42609375 11.4140625 1.6796875 C11.70410156 0.84824219 11.70410156 0.84824219 12 0 C12.99 0 13.98 0 15 0 C15 4.95 15 9.9 15 15 C14.34 15 13.68 15 13 15 C12.67 12.36 12.34 9.72 12 7 C11.01 9.64 10.02 12.28 9 15 C8.01 15 7.02 15 6 15 C5.01 12.03 4.02 9.06 3 6 C2.67 8.97 2.34 11.94 2 15 C1.34 15 0.68 15 0 15 C0 10.05 0 5.1 0 0 Z " fill="#303030" transform="translate(61,45)"/>
<path d="M0 0 C0.99 0 1.98 0 3 0 C3.83739781 2.1234016 4.66980283 4.2487728 5.5 6.375 C5.9640625 7.55835938 6.428125 8.74171875 6.90625 9.9609375 C8 13 8 13 8 15 C7.34 15 6.68 15 6 15 C5.67 14.01 5.34 13.02 5 12 C2.69 11.67 0.38 11.34 -2 11 C-2.33 12.32 -2.66 13.64 -3 15 C-3.66 15 -4.32 15 -5 15 C-1.92482916 4.44191344 -1.92482916 4.44191344 0 0 Z " fill="#191919" transform="translate(82,45)"/>
<path d="M0 0 C2.97 0 5.94 0 9 0 C9 3.63 9 7.26 9 11 C6.03 11 3.06 11 0 11 C0 9.35 0 7.7 0 6 C2.64 6 5.28 6 8 6 C8 5.34 8 4.68 8 4 C5.36 4 2.72 4 0 4 C0 2.68 0 1.36 0 0 Z " fill="#FCFCFC" transform="translate(40,47)"/>
<path d="M0 0 C0.99 0 1.98 0 3 0 C5.125 5.625 5.125 5.625 4 9 C2.35 9 0.7 9 -1 9 C-2.0326802 6.21176345 -2.04509293 5.1322726 -1.0625 2.25 C-0.711875 1.5075 -0.36125 0.765 0 0 Z " fill="#2C2C2C" transform="translate(82,45)"/>
<path d="M0 0 C0.99 0 1.98 0 3 0 C3 4.95 3 9.9 3 15 C2.34 15 1.68 15 1 15 C0.93941406 14.38511719 0.87882812 13.77023438 0.81640625 13.13671875 C0.73261719 12.32847656 0.64882812 11.52023438 0.5625 10.6875 C0.48128906 9.88699219 0.40007812 9.08648437 0.31640625 8.26171875 C0.04734307 5.83912821 0.04734307 5.83912821 -1 3 C-0.67 2.01 -0.34 1.02 0 0 Z " fill="#222222" transform="translate(73,45)"/>
<path d="M0 0 C0.99 0 1.98 0 3 0 C2.67 4.95 2.34 9.9 2 15 C1.34 15 0.68 15 0 15 C0 10.05 0 5.1 0 0 Z " fill="#292929" transform="translate(61,45)"/>
<path d="M0 0 C0.33 0.66 0.66 1.32 1 2 C3.31 2 5.62 2 8 2 C8 2.33 8 2.66 8 3 C5.69 3 3.38 3 1 3 C0.67 4.32 0.34 5.64 0 7 C-0.66 7 -1.32 7 -2 7 C-1.34 4.69 -0.68 2.38 0 0 Z " fill="#434343" transform="translate(79,53)"/>
<path d="M0 0 C0.66 0.33 1.32 0.66 2 1 C2.625 3.5625 2.625 3.5625 3 6 C1.35 6 -0.3 6 -2 6 C-1.34 4.02 -0.68 2.04 0 0 Z " fill="#E7E7E7" transform="translate(83,48)"/>
</svg>
